<svg id="Layer_1" data-name="Layer 1" xmlns="http://www.w3.org/2000/svg" xmlns:xlink="http://www.w3.org/1999/xlink" viewBox="0 0 197.97 141.27"><defs><style>.cls-1{fill:#fff;}.cls-2{fill:url(#linear-gradient);}.cls-3{fill:url(#linear-gradient-2);}.cls-4{fill:url(#linear-gradient-3);}.cls-5{fill:url(#linear-gradient-4);}.cls-6{opacity:0.32;fill:url(#linear-gradient-5);}.cls-7{fill:url(#linear-gradient-6);}.cls-8{opacity:0.42;fill:url(#linear-gradient-7);}</style><linearGradient id="linear-gradient" x1="135.96" y1="92.32" x2="137.99" y2="35.41" gradientUnits="userSpaceOnUse"><stop offset="0" stop-color="#3d0056"/><stop offset="1" stop-color="#e33fc5"/></linearGradient><linearGradient id="linear-gradient-2" x1="47.61" y1="-409.19" x2="157.06" y2="-409.19" gradientTransform="translate(162.33 -351.61) rotate(180)" gradientUnits="userSpaceOnUse"><stop offset="0" stop-color="#a553ff"/><stop offset="1" stop-color="#ae38ff"/></linearGradient><linearGradient id="linear-gradient-3" x1="61.34" y1="35.73" x2="59.8" y2="85.19" gradientUnits="userSpaceOnUse"><stop offset="0" stop-color="#2a0056"/><stop offset="0.77" stop-color="#8a0bff" stop-opacity="0.5"/></linearGradient><linearGradient id="linear-gradient-4" x1="110.59" y1="82.85" x2="126.49" y2="66.59" gradientUnits="userSpaceOnUse"><stop offset="0" stop-color="#df38ff"/><stop offset="1" stop-color="#ff39ff"/></linearGradient><linearGradient id="linear-gradient-5" x1="116.15" y1="88.86" x2="128.12" y2="76.61" gradientUnits="userSpaceOnUse"><stop offset="0" stop-color="#2a0056" stop-opacity="0"/><stop offset="1" stop-color="#8a0bff"/></linearGradient><linearGradient id="linear-gradient-6" x1="111.18" y1="31.7" x2="36.49" y2="44.91" gradientTransform="matrix(1, 0, 0, 1, 0, 0)" xlink:href="#linear-gradient-2"/><linearGradient id="linear-gradient-7" x1="35.15" y1="34.76" x2="104.25" y2="28.16" gradientUnits="userSpaceOnUse"><stop offset="0" stop-color="#8a0bff"/><stop offset="1" stop-color="#2a0056" stop-opacity="0"/></linearGradient></defs><path class="cls-1" d="M1,107.65a32.91,32.91,0,0,1,6.09-.53c3.33,0,5.47.57,7.08,1.87a5.43,5.43,0,0,1,2.15,4.56A6.12,6.12,0,0,1,12,119.21v.08a6.65,6.65,0,0,1,5.32,6.47,7,7,0,0,1-2.18,5.17c-1.8,1.65-4.71,2.41-8.92,2.41A39.73,39.73,0,0,1,1,133Zm3.33,10.57h3c3.52,0,5.59-1.84,5.59-4.33,0-3-2.3-4.21-5.67-4.21a14.72,14.72,0,0,0-2.95.23Zm0,12.36a17.08,17.08,0,0,0,2.8.16c3.44,0,6.62-1.27,6.62-5,0-3.52-3-5-6.66-5H4.36Z" transform="translate(-1.03 -14.58)"/><path class="cls-1" d="M27.41,107.31v25.8H24.08v-25.8Z" transform="translate(-1.03 -14.58)"/><path class="cls-1" d="M53.57,132.27a16.61,16.61,0,0,1-6.82,1.23c-7.27,0-12.75-4.6-12.75-13.06,0-8.08,5.48-13.55,13.48-13.55A13.81,13.81,0,0,1,53.6,108l-.8,2.71a12.16,12.16,0,0,0-5.21-1.07c-6.05,0-10.07,3.87-10.07,10.64,0,6.32,3.64,10.38,9.92,10.38a13.36,13.36,0,0,0,5.44-1.07Z" transform="translate(-1.03 -14.58)"/><path class="cls-1" d="M63.37,107.31V118.1H75.85V107.31h3.37v25.8H75.85V121H63.37v12.1H60v-25.8Z" transform="translate(-1.03 -14.58)"/><path class="cls-1" d="M97.72,133.11v-25.8h3.64l8.27,13a75.09,75.09,0,0,1,4.63,8.39l.08,0c-.31-3.45-.39-6.59-.39-10.61V107.31h3.14v25.8h-3.37L105.53,120a80.86,80.86,0,0,1-4.82-8.62l-.12,0c.19,3.26.27,6.36.27,10.65v11Z" transform="translate(-1.03 -14.58)"/><path class="cls-1" d="M144.85,132a23.89,23.89,0,0,1-7.92,1.42c-3.91,0-7.12-1-9.65-3.41a13.27,13.27,0,0,1-3.6-9.61c0-7.69,5.32-13.32,14-13.32a15.88,15.88,0,0,1,6.43,1.19l-.81,2.71a13.38,13.38,0,0,0-5.7-1.11c-6.28,0-10.38,3.91-10.38,10.38s4,10.41,10,10.41a10.75,10.75,0,0,0,4.44-.69v-7.69h-5.24v-2.68h8.49Z" transform="translate(-1.03 -14.58)"/><path class="cls-1" d="M174.3,119.94c0,8.88-5.4,13.59-12,13.59-6.82,0-11.6-5.28-11.6-13.09,0-8.19,5.09-13.55,12-13.55C169.75,106.89,174.3,112.29,174.3,119.94Zm-20,.42c0,5.52,3,10.45,8.23,10.45s8.27-4.86,8.27-10.71c0-5.14-2.68-10.5-8.23-10.5S154.28,114.7,154.28,120.36Z" transform="translate(-1.03 -14.58)"/><path class="cls-1" d="M199,132.27a16.51,16.51,0,0,1-6.81,1.23c-7.28,0-12.75-4.6-12.75-13.06,0-8.08,5.47-13.55,13.47-13.55A13.82,13.82,0,0,1,199,108l-.8,2.71a12.22,12.22,0,0,0-5.21-1.07c-6.05,0-10.07,3.87-10.07,10.64,0,6.32,3.64,10.38,9.92,10.38a13.35,13.35,0,0,0,5.43-1.07Z" transform="translate(-1.03 -14.58)"/><path class="cls-1" d="M59.77,146.44a14.85,14.85,0,0,1,2.32-.18,3.83,3.83,0,0,1,2.62.78,2.51,2.51,0,0,1,.82,2,2.77,2.77,0,0,1-.72,2A3.88,3.88,0,0,1,62,152a4.09,4.09,0,0,1-1-.08v3.75H59.77ZM61,151a4,4,0,0,0,1,.1c1.46,0,2.35-.71,2.35-2s-.88-1.84-2.21-1.84a4.72,4.72,0,0,0-1.14.1Z" transform="translate(-1.03 -14.58)"/><path class="cls-1" d="M77.67,150.92c0,3.22-2,4.93-4.35,4.93s-4.21-1.92-4.21-4.75,1.84-4.92,4.35-4.92S77.67,148.14,77.67,150.92Zm-7.27.15c0,2,1.08,3.79,3,3.79s3-1.76,3-3.89c0-1.86-1-3.8-3-3.8S70.4,149,70.4,151.07Z" transform="translate(-1.03 -14.58)"/><path class="cls-1" d="M81.74,146.46a12.08,12.08,0,0,1,2.32-.2,3.84,3.84,0,0,1,2.71.77,2.32,2.32,0,0,1,.73,1.78,2.44,2.44,0,0,1-1.76,2.38v.05a2.35,2.35,0,0,1,1.38,1.89,14.09,14.09,0,0,0,.72,2.57H86.59a12,12,0,0,1-.63-2.24c-.28-1.29-.78-1.78-1.87-1.82H83v4.06H81.74ZM83,150.72h1.23c1.3,0,2.12-.71,2.12-1.78s-.88-1.73-2.16-1.75a5.25,5.25,0,0,0-1.19.11Z" transform="translate(-1.03 -14.58)"/><path class="cls-1" d="M93.62,147.36H90.77v-1H97.7v1H94.84v8.34H93.62Z" transform="translate(-1.03 -14.58)"/><path class="cls-1" d="M101.25,146.33h5v1h-3.83v3.11H106v1h-3.54v4.24h-1.21Z" transform="translate(-1.03 -14.58)"/><path class="cls-1" d="M118.52,150.92c0,3.22-2,4.93-4.35,4.93S110,153.93,110,151.1s1.85-4.92,4.35-4.92S118.52,148.14,118.52,150.92Zm-7.27.15c0,2,1.09,3.79,3,3.79s3-1.76,3-3.89c0-1.86-1-3.8-3-3.8S111.25,149,111.25,151.07Z" transform="translate(-1.03 -14.58)"/><path class="cls-1" d="M122.59,146.33h1.21v8.35h4v1h-5.21Z" transform="translate(-1.03 -14.58)"/><path class="cls-1" d="M132.86,146.33v9.37h-1.21v-9.37Z" transform="translate(-1.03 -14.58)"/><path class="cls-1" d="M145.48,150.92c0,3.22-2,4.93-4.35,4.93s-4.21-1.92-4.21-4.75,1.85-4.92,4.35-4.92S145.48,148.14,145.48,150.92Zm-7.27.15c0,2,1.09,3.79,3,3.79s3-1.76,3-3.89c0-1.86-1-3.8-3-3.8S138.21,149,138.21,151.07Z" transform="translate(-1.03 -14.58)"/><path class="cls-2" d="M145.35,14.58a14.51,14.51,0,0,0-13,8.15c-3.52,7.22-8.77,18-13.23,27.17-6.72,13.8-18.66,21.16-35.6,8l-.26.31c9.12,9,26.38,25.88,32.79,32.25,19.6,19.46,35.92,7.77,44.35-9.55l32.31-66.35Z" transform="translate(-1.03 -14.58)"/><path class="cls-3" d="M52.6,100.58a14.5,14.5,0,0,0,13-8.15L78.87,65.26c6.72-13.8,18.66-21.16,35.6-8,.08-.1.17-.2.25-.31C105.6,48,88.34,31.05,81.93,24.68,62.34,5.22,46,16.92,37.59,34.23L5.27,100.58Z" transform="translate(-1.03 -14.58)"/><path class="cls-4" d="M52.6,100.58a14.5,14.5,0,0,0,13-8.15L78.87,65.26c6.72-13.8,18.66-21.16,35.6-8,.08-.1.17-.2.25-.31C105.6,48,88.34,31.05,81.93,24.68,62.34,5.22,46,16.92,37.59,34.23L5.27,100.58Z" transform="translate(-1.03 -14.58)"/><path class="cls-5" d="M116,90.48c19.6,19.46,35.92,7.77,44.35-9.55l17.95-36.85c-26.21,54.09-70.16,34.4-94.83,13.84l-.26.31C92.35,67.18,109.61,84.11,116,90.48Z" transform="translate(-1.03 -14.58)"/><path class="cls-6" d="M94.89,69.67c8.15,8,17,16.65,21.13,20.81,19.6,19.46,35.92,7.77,44.35-9.55L169.57,62C147.28,91.87,117.06,83.94,94.89,69.67Z" transform="translate(-1.03 -14.58)"/><path class="cls-7" d="M81.93,24.68C62.34,5.22,46,16.92,37.59,34.23l-18,36.85C45.85,17,89.8,36.68,114.47,57.24c.08-.1.17-.2.25-.31C105.6,48,88.34,31.05,81.93,24.68Z" transform="translate(-1.03 -14.58)"/><path class="cls-8" d="M103,45.5c-8.15-8-17-16.66-21.14-20.82C62.31,5.22,46,16.92,37.56,34.23l-9.21,18.9C50.65,23.29,80.87,31.23,103,45.5Z" transform="translate(-1.03 -14.58)"/></svg>