<?xml version="1.0" encoding="utf-8"?>
<!-- Generator: Adobe Illustrator 24.1.2, SVG Export Plug-In . SVG Version: 6.00 Build 0)  -->
<svg version="1.1" id="Layer_1" xmlns="http://www.w3.org/2000/svg" xmlns:xlink="http://www.w3.org/1999/xlink" x="0px" y="0px"
	 viewBox="0 0 100 100" style="enable-background:new 0 0 100 100;" xml:space="preserve">
<style type="text/css">
	.st0{fill:url(#SVGID_1_);}
	.st1{fill:url(#SVGID_2_);}
	.st2{fill:url(#SVGID_3_);}
	.st3{fill:url(#SVGID_4_);}
	.st4{opacity:0.32;fill:url(#SVGID_5_);enable-background:new    ;}
	.st5{fill:url(#SVGID_6_);}
	.st6{opacity:0.42;fill:url(#SVGID_7_);enable-background:new    ;}
</style>
<linearGradient id="SVGID_1_" gradientUnits="userSpaceOnUse" x1="69.9799" y1="25.0154" x2="71.0196" y2="54.1627" gradientTransform="matrix(1 0 0 -1 -1.03 87.42)">
	<stop  offset="0" style="stop-color:#3D0056"/>
	<stop  offset="1" style="stop-color:#E33FC5"/>
</linearGradient>
<path class="st0" d="M73.74,22.59c-2.83,0.01-5.42,1.63-6.66,4.17c-1.8,3.7-4.49,9.22-6.78,13.92c-3.44,7.07-9.56,10.84-18.23,4.1
	l-0.13,0.16c4.67,4.61,13.51,13.25,16.79,16.52c10.04,9.97,18.4,3.98,22.71-4.89L98,22.58L73.74,22.59z"/>
<linearGradient id="SVGID_2_" gradientUnits="userSpaceOnUse" x1="105.2437" y1="510.802" x2="161.3" y2="510.802" gradientTransform="matrix(-1 0 0 1 163.3 -466.19)">
	<stop  offset="0" style="stop-color:#A553FF"/>
	<stop  offset="1" style="stop-color:#AE38FF"/>
</linearGradient>
<path class="st1" d="M26.24,66.63c2.83-0.01,5.42-1.63,6.66-4.17l6.8-13.92c3.44-7.07,9.56-10.84,18.23-4.1
	c0.04-0.05,0.09-0.1,0.13-0.16c-4.67-4.58-13.51-13.27-16.79-16.53c-10.03-9.97-18.4-3.97-22.71,4.89L2,66.63H26.24z"/>
<linearGradient id="SVGID_3_" gradientUnits="userSpaceOnUse" x1="31.7444" y1="53.9994" x2="30.9557" y2="28.6678" gradientTransform="matrix(1 0 0 -1 -1.03 87.42)">
	<stop  offset="0" style="stop-color:#2A0056"/>
	<stop  offset="0.77" style="stop-color:#8A0BFF;stop-opacity:0.5"/>
</linearGradient>
<path class="st2" d="M26.24,66.63c2.83-0.01,5.42-1.63,6.66-4.17l6.8-13.92c3.44-7.07,9.56-10.84,18.23-4.1
	c0.04-0.05,0.09-0.1,0.13-0.16c-4.67-4.58-13.51-13.27-16.79-16.53c-10.03-9.97-18.4-3.97-22.71,4.89L2,66.63H26.24z"/>
<linearGradient id="SVGID_4_" gradientUnits="userSpaceOnUse" x1="56.9641" y1="29.873" x2="65.1075" y2="38.2008" gradientTransform="matrix(1 0 0 -1 -1.03 87.42)">
	<stop  offset="0" style="stop-color:#DF38FF"/>
	<stop  offset="1" style="stop-color:#FF39FF"/>
</linearGradient>
<path class="st3" d="M58.71,61.46c10.04,9.97,18.4,3.98,22.71-4.89l9.19-18.87C77.2,65.4,54.69,55.32,42.05,44.79l-0.13,0.16
	C46.6,49.53,55.44,58.2,58.71,61.46z"/>
<linearGradient id="SVGID_5_" gradientUnits="userSpaceOnUse" x1="59.8205" y1="26.7863" x2="65.9511" y2="33.0604" gradientTransform="matrix(1 0 0 -1 -1.03 87.42)">
	<stop  offset="0" style="stop-color:#2A0056;stop-opacity:0"/>
	<stop  offset="1" style="stop-color:#8A0BFF"/>
</linearGradient>
<path class="st4" d="M47.9,50.8c4.17,4.1,8.71,8.53,10.82,10.66c10.04,9.97,18.4,3.98,22.71-4.89l4.71-9.7
	C74.73,62.17,59.25,58.11,47.9,50.8z"/>
<linearGradient id="SVGID_6_" gradientUnits="userSpaceOnUse" x1="57.2729" y1="56.0653" x2="19.0194" y2="49.2997" gradientTransform="matrix(1 0 0 -1 -1.03 87.42)">
	<stop  offset="0" style="stop-color:#A553FF"/>
	<stop  offset="1" style="stop-color:#AE38FF"/>
</linearGradient>
<path class="st5" d="M41.26,27.76c-10.03-9.97-18.4-3.97-22.71,4.89L9.33,51.53c13.45-27.7,35.96-17.62,48.59-7.09
	c0.04-0.05,0.09-0.1,0.13-0.16C53.39,39.7,44.55,31.02,41.26,27.76z"/>
<linearGradient id="SVGID_7_" gradientUnits="userSpaceOnUse" x1="18.3336" y1="54.4944" x2="53.7241" y2="57.8747" gradientTransform="matrix(1 0 0 -1 -1.03 87.42)">
	<stop  offset="0" style="stop-color:#8A0BFF"/>
	<stop  offset="1" style="stop-color:#2A0056;stop-opacity:0"/>
</linearGradient>
<path class="st6" d="M52.05,38.42c-4.17-4.1-8.71-8.53-10.83-10.66c-10.01-9.97-18.37-3.97-22.69,4.89l-4.72,9.68
	C25.24,27.05,40.72,31.12,52.05,38.42z"/>
</svg>
